<?xml version="1.0" encoding="utf-8"?><svg viewBox="0 0 124 125" xmlns="http://www.w3.org/2000/svg" xmlns:xlink="http://www.w3.org/1999/xlink"><style>:root>svg{display:none}:root>svg:target{display:block}</style><svg fill="none" viewBox="0 0 8 6" id="arrow-down" xmlns="http://www.w3.org/2000/svg">
    <path d="M8 1.446 7.067.5 4 3.608.933.5 0 1.446 4 5.5l4-4.054Z" fill="#292929"/>
</svg><svg fill="none" viewBox="0 0 16 20" id="bage-vector" xmlns="http://www.w3.org/2000/svg">
    <path d="M16 0H0v20h16L9 10l7-10Z" fill="#FF4D6D"/>
</svg><svg fill="none" viewBox="0 0 24 24" id="cart" xmlns="http://www.w3.org/2000/svg">
    <path d="M19 6.604H5v15.41h14V6.603Z" stroke="#000" stroke-miterlimit="10" stroke-linecap="round" stroke-linejoin="round"/>
    <path d="M8.289 8.483V4.537C8.289 3.127 9.322 2 10.544 2h2.912c1.222 0 2.255 1.128 2.255 2.537v3.946" stroke="#000" stroke-miterlimit="10" stroke-linecap="round" stroke-linejoin="round"/>
</svg><svg fill="none" viewBox="0 0 9 18" id="fb" xmlns="http://www.w3.org/2000/svg">
    <path d="M8.638 8.983h-2.67V18H1.924V8.983H0v-3.17h1.924v-2.05C1.924 2.296 2.679 0 6.004 0L9 .012v3.076H6.826c-.356 0-.858.164-.858.863v1.866h3.023l-.353 3.166Z" fill="#292929"/>
</svg><svg fill="none" viewBox="0 0 20 20" id="ig" xmlns="http://www.w3.org/2000/svg">
    <path d="M14.48 0H5.52A5.526 5.526 0 0 0 0 5.52v8.96A5.525 5.525 0 0 0 5.52 20h8.96A5.526 5.526 0 0 0 20 14.48V5.52A5.526 5.526 0 0 0 14.48 0Zm3.746 14.48a3.75 3.75 0 0 1-3.745 3.745H5.519a3.749 3.749 0 0 1-3.745-3.744V5.519A3.749 3.749 0 0 1 5.52 1.774h8.962a3.75 3.75 0 0 1 3.745 3.745v8.962Z" fill="#292929"/>
    <path d="M10 4.847A5.16 5.16 0 0 0 4.847 10 5.16 5.16 0 0 0 10 15.153 5.16 5.16 0 0 0 15.154 10 5.16 5.16 0 0 0 10 4.847Zm0 8.532A3.383 3.383 0 0 1 6.621 10a3.383 3.383 0 0 1 3.38-3.379 3.383 3.383 0 0 1 3.378 3.38A3.383 3.383 0 0 1 10 13.378ZM15.37 3.342a1.306 1.306 0 0 0-1.302 1.301c0 .342.14.678.383.92.24.242.577.381.919.381.343 0 .678-.14.92-.38.242-.243.381-.579.381-.92 0-.344-.139-.68-.381-.921a1.307 1.307 0 0 0-.92-.381Z" fill="#292929"/>
</svg><svg fill="none" viewBox="0 0 29 2" id="line" xmlns="http://www.w3.org/2000/svg">
    <path stroke="#000" stroke-width="1.5" d="M0 1.25h29"/>
</svg><svg fill="none" viewBox="0 0 124 125" id="logo" xmlns="http://www.w3.org/2000/svg">
    <path d="M105.925 105.925c-24.2 24.2-63.4 24.2-87.7 0-24.3-24.3-24.3-63.5 0-87.7 24.2-24.3 63.4-24.3 87.7 0 24.1 24.2 24.1 63.4 0 87.7Z" fill="#B3D9F3"/>
    <path d="m79.325 40.025-.6 27.4s-3.4 4.2-16.8 4.2c-13.2 0-15.3-4.8-15.3-4.8l-.5-25.2c-.6.1.7 0 0 0-7.1.1-14.1-5.6-14.1-12.7s5.8-12.9 12.9-12.9c1.8 0 3.6.4 5.2 1.1 2.1-4.2 6.6-7.1 11.6-7.1 4.8 0 8.7 2.7 11 6.6 2.1-1.6 4.7-2.4 7.6-2.4 7.1 0 12.9 5.7 12.9 12.9.1 7.1-6.7 12.9-13.9 12.9.6 0-.4 0 0 0Z" fill="#fff"/>
    <path d="M27.726 56.725c0-1.1-.1-2-.2-2.5-.2-1.2-.8-2.3-1.8-3.2-1-.9-2.1-1.3-3.5-1.3s-2.7.5-3.7 1.5c-1.1-1-2.3-1.5-3.7-1.5-1.3 0-2.6.5-3.5 1.3-.9.8-1.6 1.8-1.9 3.2-.1.6-.2 1.4-.2 2.5v8.6c0 .5.4.7.7.7.5 0 .7-.4.7-.7v-8.9c0-1.6.3-2.9 1-3.9.7-1.1 1.8-1.6 3.3-1.6 1.1 0 2 .4 2.8 1.2-.7 1.2-1 2.5-1 4.3v8.8c0 .4.3.7.7.7.5 0 .7-.4.7-.7v-8.9c0-1.3.2-2.3.5-3 .3.8.5 2 .5 3.4v8.6c0 .4.3.7.7.7.5 0 .7-.4.7-.7v-9.2c0-1.8-.3-3.1-1-4.1.7-.7 1.6-1.1 2.7-1.1 1 0 1.9.3 2.6.9.7.5 1.2 1.3 1.5 2.3.2.6.2 1.3.2 2.3v8.9c0 .4.3.7.7.7.5 0 .7-.4.7-.7l-.1-.5v-8.1h-.1ZM43.926 52.225c-1.6-1.6-3.6-2.4-5.9-2.4-2.3 0-4.3.8-5.9 2.4-1.6 1.6-2.4 3.6-2.4 5.9 0 2.3.8 4.3 2.5 5.9 1.7 1.6 3.7 2.4 6 2.4 1.7 0 3.3-.5 4.6-1.4v.2c0 .7.4.9.7.9.3 0 .7-.3.7-.9v-1.3c1.6-1.7 2.4-3.6 2.4-5.8-.2-2.4-1.1-4.4-2.7-5.9Zm-1.3 6v5.2c-1.4 1.2-2.9 1.8-4.6 1.8-1.9 0-3.6-.7-4.9-2.1-1.4-1.3-2-2.9-2-4.9 0-2 .7-3.6 2.1-5 1.4-1.4 3-2.1 5-2.1 1.9 0 3.6.7 4.9 2.1 1.3 1.4 2.1 3 2.1 4.9 0 1.4-.4 2.6-1.1 3.7v-3.6c-.2-1-1.5-1-1.5 0ZM55.425 66.425c1.9 0 3.7-.6 5.3-1.9.4-.3.7-.5.9-.8h.1v-.1c.1-.1.1-.2.1-.4 0-.3-.2-.6-.6-.6h-.4l-.1.2v.2c-.7.6-1.5 1.2-2.3 1.6-.9.4-1.9.7-2.8.7-2 0-3.6-.7-4.9-2.1-1.4-1.4-2.1-3-2.1-5 0-1.9.7-3.6 2.1-4.9 1.3-1.4 2.9-2 4.9-2 1.9 0 3.6.7 5 2.1l.3.2h.4l.1-.1c.2-.1.3-.3.3-.5v-.2l-.1-.1s0-.1-.1-.1c-.1-.1-.1-.2-.2-.2-1.5-1.6-3.5-2.5-5.9-2.5-2.3 0-4.3.8-5.9 2.4-1.6 1.6-2.4 3.6-2.4 5.9 0 2.2.8 4.2 2.4 5.9 1.7 1.5 3.7 2.3 5.9 2.3ZM76.026 52.225c-1.6-1.6-3.6-2.4-5.9-2.4-2.3 0-4.3.8-5.9 2.4-1.6 1.6-2.4 3.6-2.4 5.9 0 2.3.8 4.3 2.4 5.9 1.7 1.6 3.7 2.4 6 2.4 1.7 0 3.3-.5 4.6-1.4v.2c0 .7.4.9.7.9.3 0 .7-.3.7-.9v-1.3c1.6-1.7 2.4-3.6 2.4-5.8-.1-2.5-.9-4.4-2.6-5.9Zm-1.3 6v5.2c-1.4 1.2-2.9 1.8-4.6 1.8-1.9 0-3.6-.7-5-2.1-1.4-1.3-2-2.9-2-4.9 0-2 .7-3.6 2.1-5 1.4-1.4 3-2.1 5-2.1 1.9 0 3.6.7 4.9 2.1 1.4 1.4 2.1 3 2.1 4.9 0 1.4-.4 2.7-1.1 3.8v-3.6c-.1-1.1-1.4-1.1-1.4-.1ZM80.626 66.125c.5 0 .7-.4.7-.7v-6.5c0-1.7.1-2.7.3-3.4.3-1.1.9-2 1.7-2.7.8-.7 1.7-1.1 2.7-1.4.5 0 .7-.4.7-.7 0-.5-.3-.6-.5-.7h-.2c-.5 0-1.1.2-1.8.6-1.2.6-2.2 1.4-2.9 2.5v-2.3c0-1-1.4-1-1.4 0v14.6c0 .4.3.7.7.7ZM101.225 52.225c-1.6-1.6-3.6-2.4-5.9-2.4-2.3 0-4.3.8-5.9 2.4-1.6 1.6-2.4 3.6-2.4 5.9 0 2.3.8 4.3 2.4 5.9 1.7 1.6 3.7 2.4 6 2.4s4.3-.8 5.9-2.5c1.6-1.7 2.4-3.7 2.4-6 0-2.2-.8-4.2-2.5-5.7Zm-5.9-1.1c1.9 0 3.6.7 4.9 2.1 1.4 1.4 2.1 3 2.1 4.9 0 2-.7 3.7-2.2 5-1.3 1.4-2.9 2-4.9 2-1.9 0-3.6-.7-4.9-2.1-1.4-1.4-2.1-3-2.1-4.9 0-2 .7-3.6 2.1-5 1.3-1.4 3-2 5-2ZM116.725 54.025c-.2-1.2-.8-2.2-1.9-3.1-1-.8-2.2-1.3-3.5-1.3-1 0-1.9.2-2.7.7-.6.4-1.2.8-1.6 1.4v-1c0-1-1.4-1-1.4 0v14.6c0 .5.4.7.7.7.5 0 .7-.4.7-.7v-8.3c0-.9 0-1.7.1-2.1.2-1.2.6-2.1 1.3-2.8.8-.7 1.8-1.1 2.8-1.1.8 0 1.6.2 2.2.6.9.5 1.5 1.3 1.7 2.3.2.6.2 1.7.2 3.1v8.3c0 .4.3.7.7.7.2 0 .4-.1.5-.2h.3v-9.5c.1-.9 0-1.7-.1-2.3ZM40.525 85.325c-.7 0-.8.4-.8.7 0 .5.4.7.7.7.8 0 1.4.2 2.1.6 1.3.7 2 1.9 2 3.4 0 1.1-.4 2-1.2 2.8-.8.8-1.7 1.2-2.8 1.2-1.6 0-2.7-.7-3.6-2.1-.3-.4-.5-1-.5-1.7 0-.5-.3-.8-.7-.8-.5 0-.7.4-.7.7 0 1.4.6 2.7 1.7 3.6 1 1 2.3 1.5 3.7 1.5 1.5 0 2.8-.5 3.8-1.6 1-1 1.6-2.3 1.6-3.8s-.5-2.7-1.5-3.7c-1-.9-2.3-1.5-3.8-1.5Z" fill="#000"/>
    <path d="M40.225 81.125c1.3 0 2.2.5 2.8 1.6.1.2.3.6.4 1 0 .5.3.8.7.8.4 0 .7-.3.7-.7 0-1.2-.6-2.2-1.6-2.8-.9-.8-1.9-1.2-3.1-1.2-1.2 0-2.3.4-3.2 1.3-.8 1-1.3 2-1.3 3.2 0 1.2.4 2.3 1.3 3.2.8.9 1.9 1.4 3.1 1.4.5 0 .8-.3.8-.7 0-.4-.3-.7-.7-.7-.9 0-1.6-.3-2.2-.9-.6-.6-.9-1.4-.9-2.3 0-.9.3-1.7.9-2.3.8-.6 1.5-.9 2.3-.9ZM57.925 86.525c0-1.1-.1-1.9-.2-2.4-.3-1.3-.9-2.3-1.8-3-1-.9-2-1.3-3.3-1.3-.9 0-1.8.2-2.6.7-.7.3-1.2.8-1.6 1.3v-6c0-1-1.4-1-1.4 0v19.1c0 .5.4.7.7.7.5 0 .7-.4.7-.7v-8c0-.6 0-1.1.1-1.5v-.6c.2-1.1.6-2 1.3-2.7.8-.7 1.6-1 2.8-1 .8 0 1.6.2 2.2.6.9.6 1.4 1.3 1.6 2.2.2.6.2 1.6.2 3v8c0 .4.3.7.7.7.5 0 .7-.4.7-.7l-.1-.5v-7.9ZM73.325 82.125c-1.6-1.6-3.5-2.4-5.7-2.4s-4.2.8-5.7 2.4c-1.6 1.6-2.4 3.5-2.4 5.7s.8 4.2 2.4 5.7c1.6 1.6 3.5 2.4 5.8 2.4s4.2-.8 5.7-2.4c1.6-1.6 2.4-3.5 2.4-5.8s-.8-4.1-2.5-5.6Zm-10.5 10.5c-1.3-1.3-2-2.9-2-4.8s.7-3.5 2-4.9c1.3-1.3 2.9-2 4.9-2 1.8 0 3.5.7 4.8 2 1.3 1.3 2 2.9 2 4.8s-.7 3.6-2.1 4.9c-1.3 1.3-2.9 2-4.8 2-1.8 0-3.5-.7-4.8-2ZM85.225 79.725c-2.3 0-4.2.8-5.7 2.4-1.5 1.6-2.4 3.5-2.4 5.7s.8 4.1 2.3 5.7v6.5c0 .4.3.7.7.7.5 0 .7-.4.7-.7v-5.3c1.3.9 2.8 1.3 4.4 1.3 2.3 0 4.3-.8 5.8-2.3 1.6-1.6 2.5-3.4 2.5-5.7 0-2.3-.9-4.2-2.5-5.8-1.6-1.7-3.5-2.5-5.8-2.5Zm-5.1 7.4c-.3 0-.7.3-.7.8v3.4c-.6-1-.9-2.2-.9-3.5 0-1.8.7-3.5 2-4.8 1.4-1.4 3-2 4.9-2 1.9 0 3.5.7 4.9 2 1.3 1.3 2 2.9 2 4.9 0 1.9-.7 3.5-2.1 4.8-1.3 1.3-2.9 2-4.8 2-1.7 0-3.2-.6-4.5-1.8v-5c-.1-.7-.5-.8-.8-.8ZM56.726 102.325v7.2l6.5-3.7-6.5-3.5Z" fill="#000"/>
    <path d="M69.426 102.325v7.2l-6.5-3.7 6.5-3.5Z" fill="#000"/>
</svg><svg fill="none" viewBox="0 0 24 24" id="ok" xmlns="http://www.w3.org/2000/svg">
    <path d="M12.118 12.47a4.24 4.24 0 0 0 4.235-4.235A4.24 4.24 0 0 0 12.118 4a4.24 4.24 0 0 0-4.236 4.235 4.24 4.24 0 0 0 4.236 4.236Zm0-6.352a2.12 2.12 0 0 1 2.117 2.117 2.12 2.12 0 0 1-2.117 2.118A2.12 2.12 0 0 1 10 8.235a2.12 2.12 0 0 1 2.118-2.117Z" fill="#000"/>
    <path d="M17.916 11.825a1.158 1.158 0 0 0-1.546 0c-2.344 2.161-6.159 2.161-8.504 0a1.158 1.158 0 0 0-1.545 0 .953.953 0 0 0 0 1.427c1.36 1.253 3.083 1.968 4.86 2.154L8.066 18.28a.952.952 0 0 0 0 1.425 1.158 1.158 0 0 0 1.546 0l2.507-2.311 2.506 2.31c.213.197.493.296.773.296s.56-.099.773-.295a.952.952 0 0 0 0-1.425l-3.117-2.874c1.778-.186 3.502-.9 4.861-2.155a.954.954 0 0 0 .002-1.426Z" fill="#000"/>
</svg><svg fill="none" viewBox="0 0 24 24" id="phone" xmlns="http://www.w3.org/2000/svg">
    <path d="M16.183 20.983H8.817A1.816 1.816 0 0 1 7 19.165V4.817C7 3.861 7.765 3 8.817 3h7.366C17.139 3 18 3.765 18 4.817v14.348c0 .957-.86 1.818-1.817 1.818ZM8.722 17.348h7.556" stroke="#000" stroke-miterlimit="10" stroke-linecap="round" stroke-linejoin="round"/>
    <path d="M12.357 19.835a.67.67 0 1 0 0-1.34.67.67 0 0 0 0 1.34Z" fill="#000"/>
</svg><svg fill="none" viewBox="0 0 24 24" id="place" xmlns="http://www.w3.org/2000/svg">
    <path d="M16.95 4.052A6.953 6.953 0 0 0 12 2c-1.87 0-3.627.729-4.95 2.052-2.446 2.448-2.75 7.053-.658 9.844L12.001 22l5.6-8.093c2.1-2.802 1.797-7.407-.65-9.855Zm-4.885 7.444A2.56 2.56 0 0 1 9.51 8.94a2.56 2.56 0 0 1 2.555-2.557 2.56 2.56 0 0 1 2.556 2.557 2.56 2.56 0 0 1-2.556 2.556Z" stroke="#000" stroke-linejoin="round"/>
</svg><svg fill="none" viewBox="0 0 24 24" id="tg" xmlns="http://www.w3.org/2000/svg">
    <path d="M17.973 6.047 3.34 11.123c-.474.165-.445.77.043.899l3.718.977 1.388 3.92c.145.41.728.534 1.065.227l1.922-1.747 3.773 2.465c.461.301 1.119.077 1.236-.422l2.498-10.634c.123-.52-.453-.954-1.01-.761Zm-1.834 2.36-6.798 5.35a.315.315 0 0 0-.12.208l-.262 2.07c-.009.068-.115.077-.138.012L7.745 12.96c-.05-.142.015-.295.156-.373l8.027-4.432c.184-.102.373.125.21.253Z" fill="#000"/>
</svg><svg fill="none" viewBox="0 0 24 24" id="vk" xmlns="http://www.w3.org/2000/svg">
    <path fill-rule="evenodd" clip-rule="evenodd" d="M11.343 17.453h1.007s.304-.033.46-.2c.142-.154.137-.442.137-.442s-.02-1.351.608-1.55c.618-.196 1.412 1.305 2.253 1.883.636.437 1.12.34 1.12.34l2.249-.03s1.177-.073.619-.998c-.046-.076-.325-.684-1.673-1.935-1.41-1.31-1.222-1.098.477-3.362 1.035-1.38 1.449-2.221 1.32-2.582-.124-.343-.885-.252-.885-.252l-2.532.015s-.188-.025-.327.058c-.136.082-.224.272-.224.272s-.4 1.067-.935 1.975c-1.128 1.915-1.579 2.016-1.763 1.897-.43-.277-.322-1.114-.322-1.708 0-1.855.281-2.63-.548-2.83-.276-.066-.478-.11-1.182-.117-.904-.01-1.669.003-2.102.215-.288.141-.51.455-.375.473.168.023.547.103.748.376.26.353.25 1.146.25 1.146s.15 2.185-.348 2.457c-.342.186-.81-.194-1.815-1.932-.515-.89-.904-1.873-.904-1.873s-.075-.184-.21-.283c-.162-.119-.388-.157-.388-.157l-2.407.016s-.361.01-.494.167c-.118.14-.01.429-.01.429s1.885 4.408 4.018 6.63c1.956 2.036 4.178 1.902 4.178 1.902Z" fill="#000"/>
</svg><svg fill="none" viewBox="0 0 22 12" id="vkontakte" xmlns="http://www.w3.org/2000/svg">
    <path fill-rule="evenodd" clip-rule="evenodd" d="M10.764 11.867h1.315s.397-.042.6-.25c.186-.19.18-.548.18-.548s-.025-1.675.794-1.922c.807-.243 1.844 1.62 2.943 2.335.83.542 1.462.424 1.462.424l2.938-.04s1.537-.09.808-1.236c-.06-.094-.424-.85-2.184-2.4-1.843-1.624-1.596-1.361.623-4.17 1.352-1.71 1.892-2.754 1.723-3.201-.16-.426-1.155-.314-1.155-.314l-3.308.02s-.245-.032-.427.072c-.178.1-.292.337-.292.337s-.524 1.323-1.222 2.449c-1.473 2.375-2.062 2.5-2.303 2.353-.56-.344-.42-1.381-.42-2.118 0-2.301.368-3.261-.716-3.51-.36-.082-.624-.137-1.543-.145C9.4-.01 8.4.006 7.833.269c-.376.175-.666.565-.49.588.22.027.714.126.977.466.339.438.327 1.421.327 1.421s.195 2.71-.455 3.046c-.446.23-1.057-.24-2.37-2.395A19.592 19.592 0 0 1 4.64 1.07S4.543.843 4.37.721C4.157.574 3.86.526 3.86.526L.717.546S.245.559.072.753c-.154.174-.012.532-.012.532s2.46 5.467 5.247 8.222c2.555 2.526 5.457 2.36 5.457 2.36Z" fill="#292929"/>
</svg></svg>